# xmcd
#
# Track frame offsets:
#	150
#	17639
#	31408
#	49542
#	62699
#	83370
#	98814
#	114199
#	132527
#	146328
#	162937
#	177167
#	191486
#	208320
#	221754
#	238601
#	251539
#	266196
#	281393
#	300372
#
# Disc length: 4208 seconds
#
# Revision: 3
# Processed by: cddbd v1.5.2PL0 Copyright (c) Steve Scherf et al.
# Submitted via: EasyCDDAExtractor 11.5.0.1
#
DISCID=12106e14
DTITLE=Various Artist - NCT 059
DYEAR=2004
DGENRE=Country
TTITLE0=Lonestar - Let's Be Us Again
TTITLE1=LeeAnn Womack - The Wrong Girl
TTITLE2=Andy Griggs - She Thinks She Needs Me
TTITLE3=Scotty Emerick - The Coast Is Clear
TTITLE4=Cross Canadian Ragweed - Sick And Tired
TTITLE5=Rodney Atkins - Someone To Share It With
TTITLE6=Br549 - That's What I Get
TTITLE7=Julie Roberts - Break Down Here
TTITLE8=Pinmonkey - Let's Kill Saturday Night
TTITLE9=Blake Shelton - When Somebody Knows You That Well
TTITLE10=Hank Williams, Jr. - Why Can't We Just Get Along Neck?
TTITLE11=Shannon Lawson - Everybody Wants (Something They Can't Have)
TTITLE12=Chely Wright - In The Back Of The Bottom Drawer
TTITLE13=Donovan Chapman - Hey Hollywood
TTITLE14=John Arthur Martinez - Home Made Of Stone
TTITLE15=Zona Jones - House Of Negotiable Affections
TTITLE16=Jules Rancourt - Let's Take A Walk
TTITLE17=Shane Sellers - You Can't Count Me Out Yet
TTITLE18=T Graham Brown - Middle Age Crazy
TTITLE19=Allison Paige - End Of The World
EXTD=
EXTT0=
EXTT1=
EXTT2=
EXTT3=
EXTT4=
EXTT5=
EXTT6=
EXTT7=
EXTT8=
EXTT9=
EXTT10=
EXTT11=
EXTT12=
EXTT13=
EXTT14=
EXTT15=
EXTT16=
EXTT17=
EXTT18=
EXTT19=
PLAYORDER=
